<svg width="82" height="21" viewBox="0 0 82 21" fill="none" xmlns="http://www.w3.org/2000/svg">
<path d="M50.1 0.5C49.2 0.699999 48.05 1.25 47.55 1.7C46.65 2.5 46.5 2.5 44.95 1.55C42.9 0.299999 38.65 0.15 37.2 1.25C36 2.15 35.45 2.2 35.65 1.35C35.7 0.949999 35.1 0.75 33.75 0.75H31.75L31.6 10.35L31.5 20H34H36.5V13.05C36.5 7.35 36.65 5.9 37.3 5.3C38.4 4.2 40.8 4.3 42 5.5C42.9 6.4 43 7.15 43 13.25V20H45.25H47.5V13.1C47.5 5.4 47.85 4.5 50.8 4.5C53.95 4.5 54.25 5.15 54.4 12.95L54.6 20H56.8H59V12.75C59 7.6 58.8 4.95 58.3 3.75C57.2 1.15 53.5 -0.35 50.1 0.5Z" fill="#F8FAF9"/>
<path d="M69.5001 0.549997C66.9501 1.35 65.1001 2.85 63.9501 5.1C61.1501 10.6 62.8501 17.3 67.7001 19.85C69.7501 20.95 74.7501 20.95 76.8501 19.85C78.5501 18.95 81.6001 15.55 81.2501 14.95C81.1001 14.75 80.2001 14.45 79.2501 14.3C77.7501 14 77.2001 14.15 75.9501 15.2C72.8501 17.8 68.5501 16.4 67.5001 12.45C66.5501 8.9 68.3501 5.1 71.4001 4.35C73.0501 3.95 75.8501 4.85 76.7001 6.1C77.3001 6.95 77.7501 7.05 79.2001 6.8C81.5501 6.35 81.7001 5.95 80.3501 4C78.3501 0.999998 73.3501 -0.600002 69.5001 0.549997Z" fill="#F8FAF9"/>
<path d="M0.5 1.2C0.5 1.8 2.85 9.7 5.55 18.4C6.1 20 6.15 20.05 8.6 19.9L11.15 19.75L12.9 13.6C13.9 10.25 14.85 7.65 15 7.85C15.2 8.1 16.1 10.9 17 14.15L18.65 20.05L21.2 19.9L23.75 19.75L26.3 11.5C30.05 -0.600002 29.95 0.499998 27.3 0.499998H25.05L23.8 4.6C23.1 6.9 22.25 9.85 21.85 11.25L21.15 13.75L20.1 10.25C19.5 8.3 18.65 5.35 18.2 3.6L17.35 0.499998H15H12.65L10.75 7.05C9.65 10.75 8.65 13.3 8.45 12.9C8.3 12.55 7.5 10.1 6.8 7.5C4.85 0.449997 4.85 0.499998 2.5 0.499998C1.1 0.499998 0.5 0.699997 0.5 1.2Z" fill="#F8FAF9"/>
</svg>
